<?xml version="1.0" encoding="UTF-8"?>
<svg width="23px" height="32px" viewBox="0 0 23 32" version="1.1" xmlns="http://www.w3.org/2000/svg" xmlns:xlink="http://www.w3.org/1999/xlink">
    <!-- Generator: Sketch 60 (88103) - https://sketch.com -->
    <title>icon-pin</title>
    <desc>Created with Sketch.</desc>
    <g id="Onee-Home-Desktop" stroke="none" stroke-width="1" fill="none" fill-rule="evenodd">
        <g id="02---Home---Travel-Advisor---Select-Customer" transform="translate(-270.000000, -613.000000)" fill="#4A4A4A">
            <g id="Search" transform="translate(240.000000, 590.000000)">
                <g id="icon-pin" transform="translate(30.000000, 23.000000)">
                    <g transform="translate(0.000000, 0.000000)" id="Shape">
                        <path d="M11.3786182,6.98181818 C9.13338182,6.98181818 7.30589091,8.80930909 7.30589091,11.0545455 C7.30589091,13.2997818 9.13338182,15.1272727 11.3786182,15.1272727 C13.6238545,15.1272727 15.4513455,13.2997818 15.4513455,11.0545455 C15.4513455,8.80930909 13.6238545,6.98181818 11.3786182,6.98181818 Z M11.3786182,13.9636364 C9.77454545,13.9636364 8.46952727,12.6586182 8.46952727,11.0545455 C8.46952727,9.45047273 9.77454545,8.14545455 11.3786182,8.14545455 C12.9826909,8.14545455 14.2877091,9.45047273 14.2877091,11.0545455 C14.2877091,12.6586182 12.9826909,13.9636364 11.3786182,13.9636364 Z" fill-rule="nonzero"></path>
                        <path d="M19.1650909,3.26807273 C17.0577455,1.16072727 14.2557091,0 11.2756364,0 C8.29498182,0 5.49352727,1.16072727 3.38618182,3.26807273 C-0.513745455,7.16741818 -0.9984,14.5041455 2.33658182,18.9492364 L11.2756364,31.8586182 L20.2013091,18.9672727 C23.5496727,14.5041455 23.0650182,7.16741818 19.1650909,3.26807273 Z M19.2576,18.2871273 L11.2756364,29.8141091 L3.28087273,18.2690909 C0.256,14.2359273 0.689454545,7.61018182 4.20945455,4.09076364 C6.09687273,2.20334545 8.60625455,1.16363636 11.2756364,1.16363636 C13.9450182,1.16363636 16.4544,2.20334545 18.3424,4.09076364 C21.8624,7.61018182 22.2958545,14.2359273 19.2576,18.2871273 Z" fill-rule="nonzero"></path>
                    </g>
                </g>
            </g>
        </g>
    </g>
</svg>