<?xml version="1.0" encoding="UTF-8"?>
<svg width="32px" height="30px" viewBox="0 0 32 30" version="1.1" xmlns="http://www.w3.org/2000/svg" xmlns:xlink="http://www.w3.org/1999/xlink">
    <!-- Generator: Sketch 60 (88103) - https://sketch.com -->
    <title>icon-bathroom</title>
    <desc>Created with Sketch.</desc>
    <g id="Onee-Home" stroke="none" stroke-width="1" fill="none" fill-rule="evenodd" opacity="0.648763021">
        <g id="06---Property-Detail" transform="translate(-493.000000, -941.000000)" fill="#000000" fill-rule="nonzero">
            <g id="Group-14" transform="translate(493.000000, 941.000000)">
                <g id="icon-bathroom" transform="translate(0.000000, -0.000000)">
                    <path d="M30.4,16.0041875 L29.8666875,16.0041875 L29.8666875,4.8041875 C29.8666875,2.1375 27.733375,0.0041875 25.0666875,0.0041875 C22.7060625,0.0041875 21.00825,1.7545625 20.8183125,4.31925 C19.579,4.5535 18.6666875,5.620875 18.6666875,6.9375 C18.6666875,7.2575 18.88,7.4708125 19.2,7.4708125 L23.4666875,7.4708125 C23.7866875,7.4708125 24,7.2575 24,6.9375 C24,5.6354375 23.107875,4.5769375 21.8895625,4.3270625 C22.0489375,2.6323125 23.0668125,1.0708125 25.0666875,1.0708125 C27.1466875,1.0708125 28.8,2.724125 28.8,4.804125 L28.8,16.004125 L12.7484375,16.004125 C12.5071875,14.7740625 11.4435625,13.8708125 10.133375,13.8708125 C9.6000625,13.2308125 8.853375,12.804125 8.0000625,12.804125 C6.98675,12.804125 6.0800625,13.3908125 5.653375,14.244125 C5.2266875,14.0308125 4.7466875,13.8708125 4.2666875,13.8708125 C2.9565,13.8708125 1.892875,14.7740625 1.651625,16.004125 L1.6,16.004125 C0.6933125,16.004125 0,16.6974375 0,17.604125 C0,18.5108125 0.6933125,19.204125 1.6,19.204125 L2.2409375,19.204125 L3.68,24.9108125 C4.1066875,26.564125 5.6,27.7375 7.3066875,27.7375 L7.733375,27.7375 L7.0400625,29.1241875 C6.8800625,29.390875 6.98675,29.710875 7.253375,29.8175 C7.3066875,29.8708125 7.413375,29.8708125 7.4666875,29.8708125 C7.68,29.8708125 7.84,29.764125 7.9466875,29.604125 L8.88,27.7375 L23.68,27.7375 L24.5866875,29.5508125 C24.693375,29.764125 24.853375,29.8708125 25.0666875,29.8708125 C25.173375,29.8708125 25.2266875,29.8708125 25.28,29.764125 C25.4933125,29.6574375 25.6,29.3374375 25.4933125,29.0708125 L24.82525,27.734625 C26.4764375,27.676 27.904375,26.52275 28.32,24.964125 L29.7725,19.204125 L30.4,19.204125 C31.3066875,19.204125 32,18.5108125 32,17.604125 C32,16.6975 31.3066875,16.0041875 30.4,16.0041875 Z M22.88,6.4041875 L19.84,6.4041875 C20.0533125,5.7641875 20.6933125,5.3375 21.3866875,5.3375 C22.0800625,5.3375 22.6666875,5.7641875 22.88,6.4041875 Z M4.2666875,14.9375 C4.7466875,14.9375 5.173375,15.1508125 5.5466875,15.5241875 C5.653375,15.6841875 5.8666875,15.7375 6.08,15.6841875 C6.2933125,15.630875 6.4,15.470875 6.4533125,15.2575 C6.6133125,14.4575 7.2533125,13.8708125 8.0533125,13.8708125 C8.64,13.8708125 9.1733125,14.1375 9.44,14.6708125 C9.5466875,14.884125 9.8133125,14.9908125 10.0266875,14.9375 C10.08,14.9375 10.133375,14.9375 10.1866875,14.9375 C10.88,14.9375 11.4666875,15.3641875 11.68,16.0041875 L2.7733125,16.0041875 C2.9866875,15.3641875 3.5733125,14.9375 4.2666875,14.9375 Z M27.36,24.6441875 C27.04,25.8175 25.9733125,26.670875 24.7466875,26.670875 L7.36,26.670875 C6.1333125,26.670875 5.0666875,25.8175625 4.7466875,24.6441875 L3.36,19.2041875 L28.64,19.2041875 L27.36,24.6441875 Z M30.4,18.1375 L29.3333125,18.1375 L2.6666875,18.1375 L1.6,18.1375 C1.28,18.1375 1.0666875,17.9241875 1.0666875,17.6041875 C1.0666875,17.2841875 1.28,17.070875 1.6,17.070875 L2.1333125,17.070875 L12.266625,17.070875 L30.4,17.070875 C30.72,17.070875 30.9333125,17.2841875 30.9333125,17.6041875 C30.9333125,17.9241875 30.72,18.1375 30.4,18.1375 Z" id="Shape"></path>
                    <path d="M19.2,9.8708125 C19.52,9.8708125 19.7333125,9.6575 19.7333125,9.3375 L19.7333125,9.0708125 C19.7333125,8.7508125 19.52,8.5375 19.2,8.5375 C18.88,8.5375 18.6666875,8.7508125 18.6666875,9.0708125 L18.6666875,9.3375 C18.6666875,9.6575 18.88,9.8708125 19.2,9.8708125 Z" id="Path"></path>
                    <path d="M19.2,12.3241875 C19.52,12.3241875 19.7333125,12.0575 19.7333125,11.790875 L19.7333125,11.2041875 C19.7333125,10.8841875 19.52,10.670875 19.2,10.670875 C18.88,10.670875 18.6666875,10.8841875 18.6666875,11.2041875 L18.6666875,11.790875 C18.6666875,12.1108125 18.88,12.3241875 19.2,12.3241875 Z" id="Path"></path>
                    <path d="M19.2,14.4041875 C19.52,14.4041875 19.7333125,14.190875 19.7333125,13.870875 L19.7333125,13.6041875 C19.7333125,13.2841875 19.52,13.070875 19.2,13.070875 C18.88,13.070875 18.6666875,13.2841875 18.6666875,13.6041875 L18.6666875,13.870875 C18.6666875,14.1908125 18.88,14.4041875 19.2,14.4041875 Z" id="Path"></path>
                    <path d="M21.3333125,9.8708125 C21.6533125,9.8708125 21.866625,9.6575 21.866625,9.3375 L21.866625,9.0708125 C21.866625,8.7508125 21.6533125,8.5375 21.3333125,8.5375 C21.0133125,8.5375 20.8,8.7508125 20.8,9.0708125 L20.8,9.3375 C20.8,9.6575 21.0133125,9.8708125 21.3333125,9.8708125 Z" id="Path"></path>
                    <path d="M20.8,11.7908125 C20.8,12.1108125 21.0133125,12.324125 21.3333125,12.324125 C21.6533125,12.324125 21.866625,12.0574375 21.866625,11.7908125 L21.866625,11.204125 C21.866625,10.884125 21.6533125,10.6708125 21.3333125,10.6708125 C21.0133125,10.6708125 20.8,10.884125 20.8,11.204125 L20.8,11.7908125 Z" id="Path"></path>
                    <path d="M20.8,13.8708125 C20.8,14.1908125 21.0133125,14.404125 21.3333125,14.404125 C21.6533125,14.404125 21.866625,14.1908125 21.866625,13.8708125 L21.866625,13.604125 C21.866625,13.284125 21.6533125,13.0708125 21.3333125,13.0708125 C21.0133125,13.0708125 20.8,13.284125 20.8,13.604125 L20.8,13.8708125 Z" id="Path"></path>
                    <path d="M23.4666875,9.8708125 C23.7866875,9.8708125 24,9.6575 24,9.3375 L24,9.0708125 C24,8.7508125 23.7866875,8.5375 23.4666875,8.5375 C23.1466875,8.5375 22.933375,8.7508125 22.933375,9.0708125 L22.933375,9.3375 C22.9333125,9.6575 23.1466875,9.8708125 23.4666875,9.8708125 Z" id="Path"></path>
                    <path d="M22.9333125,11.7908125 C22.9333125,12.1108125 23.146625,12.324125 23.466625,12.324125 C23.786625,12.324125 24,12.0575 24,11.7908125 L24,11.204125 C24,10.884125 23.7866875,10.6708125 23.4666875,10.6708125 C23.1466875,10.6708125 22.933375,10.884125 22.933375,11.204125 L22.933375,11.7908125 L22.9333125,11.7908125 Z" id="Path"></path>
                    <path d="M22.9333125,13.8708125 C22.9333125,14.1908125 23.146625,14.404125 23.466625,14.404125 C23.786625,14.404125 23.9999375,14.1908125 23.9999375,13.8708125 L23.9999375,13.604125 C23.9999375,13.284125 23.786625,13.0708125 23.466625,13.0708125 C23.146625,13.0708125 22.9333125,13.284125 22.9333125,13.604125 L22.9333125,13.8708125 Z" id="Path"></path>
                </g>
            </g>
        </g>
    </g>
</svg>