<?xml version="1.0" encoding="UTF-8"?>
<svg width="34px" height="32px" viewBox="0 0 34 32" version="1.1" xmlns="http://www.w3.org/2000/svg" xmlns:xlink="http://www.w3.org/1999/xlink">
    <!-- Generator: Sketch 60 (88103) - https://sketch.com -->
    <title>icon-calendar</title>
    <desc>Created with Sketch.</desc>
    <g id="Page-1" stroke="none" stroke-width="1" fill="none" fill-rule="evenodd">
        <g id="icon-calendar" fill="#000000" fill-rule="nonzero">
            <path d="M0.48582996,23.6328441 C0.754048583,23.6328441 0.971659919,23.4154858 0.971659919,23.1470142 L0.971659919,8.99696356 L29.6763664,8.99696356 L29.6763664,14.3372976 C29.6763664,14.6057692 29.8939777,14.8231275 30.1621963,14.8231275 C30.430668,14.8231275 30.6480263,14.6057692 30.6480263,14.3372976 L30.6480263,4.73582996 C30.6480263,3.10703443 29.3228745,1.78188256 27.694332,1.78188256 L26.4202935,1.78188256 L26.4202935,1.18016194 C26.4202935,0.529352227 25.8909413,-1.77635684e-15 25.2401316,-1.77635684e-15 L24.3375506,-1.77635684e-15 C23.6869939,-1.77635684e-15 23.1576417,0.529352227 23.1576417,1.18016194 L23.1576417,1.78188256 L19.9354757,1.78188256 L19.9354757,1.18016194 C19.9354757,0.529352227 19.4061235,-1.77635684e-15 18.7553137,-1.77635684e-15 L17.8527328,-1.77635684e-15 C17.2021761,-1.77635684e-15 16.6728239,0.529352227 16.6728239,1.18016194 L16.6728239,1.78188256 L13.4504049,1.78188256 L13.4504049,1.18016194 C13.4504049,0.529352227 12.9210526,-1.77635684e-15 12.2702429,-1.77635684e-15 L11.367915,-1.77635684e-15 C10.7171052,-1.77635684e-15 10.1877531,0.529352227 10.1877531,1.18016194 L10.1877531,1.78188256 L6.96558704,1.78188256 L6.96558704,1.18016194 C6.96558704,0.529352227 6.43623482,-1.77635684e-15 5.7854251,-1.77635684e-15 L4.88309713,-1.77635684e-15 C4.23228748,-1.77635684e-15 3.70293519,0.529352227 3.70293519,1.18016194 L3.70293519,1.78188256 L2.95394734,1.78188256 C1.32515181,1.78188256 5.32907052e-15,3.10703443 5.32907052e-15,4.73582996 L5.32907052e-15,23.1470142 C5.32907052e-15,23.4154858 0.217611336,23.6328441 0.48582996,23.6328441 L0.48582996,23.6328441 Z M24.1293016,1.18016194 C24.1293016,1.06528337 24.2229251,0.971659919 24.3378037,0.971659919 L25.2403846,0.971659919 C25.3552632,0.971659919 25.4486336,1.06528337 25.4486336,1.18016194 L25.4486336,3.54048583 C25.4486336,3.6553644 25.3552632,3.74898785 25.2403846,3.74898785 L24.3378037,3.74898785 C24.2229251,3.74898785 24.1293016,3.65561743 24.1293016,3.54048583 L24.1293016,1.18016194 Z M17.6444838,1.18016194 C17.6444838,1.06528337 17.7378543,0.971659919 17.8527328,0.971659919 L18.7553137,0.971659919 C18.8701923,0.971659919 18.9638158,1.06528337 18.9638158,1.18016194 L18.9638158,3.54048583 C18.9638158,3.6553644 18.8701923,3.74898785 18.7553137,3.74898785 L17.8527328,3.74898785 C17.7378543,3.74898785 17.6444838,3.65561743 17.6444838,3.54048583 L17.6444838,1.18016194 Z M11.159413,1.18016194 C11.159413,1.06528337 11.2530364,0.971659919 11.367915,0.971659919 L12.2704959,0.971659919 C12.3853745,0.971659919 12.478998,1.06528337 12.478998,1.18016194 L12.478998,3.54048583 C12.478998,3.6553644 12.3853745,3.74898785 12.2704959,3.74898785 L11.367915,3.74898785 C11.2530364,3.74898785 11.159413,3.65561743 11.159413,3.54048583 L11.159413,1.18016194 Z M4.67459511,1.18016194 C4.67459511,1.06528337 4.76821862,0.971659919 4.88309713,0.971659919 L5.78567812,0.971659919 C5.9005567,0.971659919 5.99392713,1.06528337 5.99392713,1.18016194 L5.99392713,3.54048583 C5.99392713,3.6553644 5.9005567,3.74898785 5.78567812,3.74898785 L4.88309713,3.74898785 C4.76821862,3.74898785 4.67459511,3.65561743 4.67459511,3.54048583 L4.67459511,1.18016194 Z M2.95394734,2.75354248 L3.70293519,2.75354248 L3.70293519,3.54048583 C3.70293519,4.19129555 4.23228748,4.72064777 4.88309713,4.72064777 L5.78567812,4.72064777 C6.43623482,4.72064777 6.96558704,4.19129555 6.96558704,3.54048583 L6.96558704,2.75354248 L10.1880061,2.75354248 L10.1880061,3.54048583 C10.1880061,4.19129555 10.7173583,4.72064777 11.367915,4.72064777 L12.2704959,4.72064777 C12.9213057,4.72064777 13.4506579,4.19129555 13.4506579,3.54048583 L13.4506579,2.75354248 L16.6728239,2.75354248 L16.6728239,3.54048583 C16.6728239,4.19129555 17.2021761,4.72064777 17.8529858,4.72064777 L18.7555668,4.72064777 C19.4061235,4.72064777 19.9354757,4.19129555 19.9354757,3.54048583 L19.9354757,2.75354248 L23.1576417,2.75354248 L23.1576417,3.54048583 C23.1576417,4.19129555 23.6869939,4.72064777 24.3378037,4.72064777 L25.2403846,4.72064777 C25.8909413,4.72064777 26.4202935,4.19129555 26.4202935,3.54048583 L26.4202935,2.75354248 L27.694332,2.75354248 C28.7874494,2.75354248 29.6766194,3.64271255 29.6766194,4.73582996 L29.6766194,8.02530364 L0.971659919,8.02530364 L0.971659919,4.73582996 C0.971659919,3.64271255 1.86082993,2.75354248 2.95394734,2.75354248 Z" id="Shape"></path>
            <path d="M5.50025302,28.1510627 L1.26391702,28.1510627 C1.10273283,28.1510627 0.971659919,28.0199899 0.971659919,27.8588056 L0.971659919,25.361083 C0.971659919,25.0926114 0.754048583,24.8752531 0.48582996,24.8752531 C0.217611336,24.8752531 0,25.0926114 0,25.361083 L0,27.8588056 C0,28.555668 0.56705464,29.1227227 1.26391702,29.1227227 L5.50025302,29.1227227 C5.76847164,29.1227227 5.98608298,28.9051113 5.98608298,28.6368927 C5.98608298,28.3684211 5.76847164,28.1510627 5.50025302,28.1510627 L5.50025302,28.1510627 Z" id="Path"></path>
            <path d="M5.48405869,12.4137146 L3.79529354,12.4137146 C3.52707491,12.4137146 3.30946358,12.6313259 3.30946358,12.8995445 C3.30946358,13.1680162 3.52707491,13.3853745 3.79529354,13.3853745 L5.48405869,13.3853745 C5.75227731,13.3853745 5.96988865,13.1680162 5.96988865,12.8995445 C5.96988865,12.6313259 5.75227731,12.4137146 5.48405869,12.4137146 Z" id="Path"></path>
            <path d="M8.98507083,13.3853745 L10.673836,13.3853745 C10.9420547,13.3853745 11.159666,13.1680162 11.159666,12.8995445 C11.159666,12.6313259 10.9420547,12.4137146 10.673836,12.4137146 L8.98507083,12.4137146 C8.71685221,12.4137146 8.49924087,12.6313259 8.49924087,12.8995445 C8.49924087,13.1680162 8.71685221,13.3853745 8.98507083,13.3853745 Z" id="Path"></path>
            <path d="M14.1748482,13.3853745 L15.8633603,13.3853745 C16.1315789,13.3853745 16.3491903,13.1680162 16.3491903,12.8995445 C16.3491903,12.6313259 16.1315789,12.4137146 15.8633603,12.4137146 L14.1748482,12.4137146 C13.9063766,12.4137146 13.6890182,12.6313259 13.6890182,12.8995445 C13.6890182,13.1680162 13.9063766,13.3853745 14.1748482,13.3853745 Z" id="Path"></path>
            <path d="M19.3643725,13.3853745 L21.0531376,13.3853745 C21.3213563,13.3853745 21.5389676,13.1680162 21.5389676,12.8995445 C21.5389676,12.6313259 21.3213563,12.4137146 21.0531376,12.4137146 L19.3643725,12.4137146 C19.0961538,12.4137146 18.8785425,12.6313259 18.8785425,12.8995445 C18.8785425,13.1680162 19.0961538,13.3853745 19.3643725,13.3853745 Z" id="Path"></path>
            <path d="M26.242662,12.4137146 L24.5541498,12.4137146 C24.2856781,12.4137146 24.0683199,12.6313259 24.0683199,12.8995445 C24.0683199,13.1680162 24.2856781,13.3853745 24.5541498,13.3853745 L26.242662,13.3853745 C26.5108806,13.3853745 26.7284919,13.1680162 26.7284919,12.8995445 C26.7284919,12.6313259 26.5108806,12.4137146 26.242662,12.4137146 L26.242662,12.4137146 Z" id="Path"></path>
            <path d="M5.48405869,16.8567813 L3.79529354,16.8567813 C3.52707491,16.8567813 3.30946358,17.0741397 3.30946358,17.3426113 C3.30946358,17.611083 3.52707491,17.8284413 3.79529354,17.8284413 L5.48405869,17.8284413 C5.75227731,17.8284413 5.96988865,17.611083 5.96988865,17.3426113 C5.96988865,17.0741397 5.75227731,16.8567813 5.48405869,16.8567813 Z" id="Path"></path>
            <path d="M8.98507083,17.8284413 L10.673836,17.8284413 C10.9420547,17.8284413 11.159666,17.611083 11.159666,17.3426113 C11.159666,17.0741397 10.9420547,16.8567813 10.673836,16.8567813 L8.98507083,16.8567813 C8.71685221,16.8567813 8.49924087,17.0741397 8.49924087,17.3426113 C8.49924087,17.611083 8.71685221,17.8284413 8.98507083,17.8284413 Z" id="Path"></path>
            <path d="M14.1748482,17.8284413 L15.8633603,17.8284413 C16.1315789,17.8284413 16.3491903,17.611083 16.3491903,17.3426113 C16.3491903,17.0741397 16.1315789,16.8567813 15.8633603,16.8567813 L14.1748482,16.8567813 C13.9063766,16.8567813 13.6890182,17.0741397 13.6890182,17.3426113 C13.6890182,17.611083 13.9063766,17.8284413 14.1748482,17.8284413 Z" id="Path"></path>
            <path d="M19.3643725,17.8284413 L21.0531376,17.8284413 C21.3213563,17.8284413 21.5389676,17.611083 21.5389676,17.3426113 C21.5389676,17.0741397 21.3213563,16.8567813 21.0531376,16.8567813 L19.3643725,16.8567813 C19.0961538,16.8567813 18.8785425,17.0741397 18.8785425,17.3426113 C18.8785425,17.611083 19.0961538,17.8284413 19.3643725,17.8284413 Z" id="Path"></path>
            <path d="M26.242662,16.8567813 L24.5541498,16.8567813 C24.2856781,16.8567813 24.0683199,17.0741397 24.0683199,17.3426113 C24.0683199,17.611083 24.2856781,17.8284413 24.5541498,17.8284413 L26.242662,17.8284413 C26.5108806,17.8284413 26.7284919,17.611083 26.7284919,17.3426113 C26.7284919,17.0741397 26.5108806,16.8567813 26.242662,16.8567813 L26.242662,16.8567813 Z" id="Path"></path>
            <path d="M30.6480263,20.4281377 L30.6480263,16.5513664 C30.6480263,16.2828948 30.430668,16.0655365 30.1621963,16.0655365 C29.8939777,16.0655365 29.6763664,16.2828948 29.6763664,16.5513664 L29.6763664,19.8084514 C28.7904858,19.3491903 27.7851721,19.0893218 26.7203948,19.0893218 C23.1662449,19.0893218 20.2747976,21.9807692 20.2747976,25.534919 C20.2747976,26.4658401 20.4734312,27.3509616 20.8299595,28.1510627 L7.71406886,28.1510627 C7.44585017,28.1510627 7.2282389,28.3684211 7.2282389,28.6368927 C7.2282389,28.9051113 7.44585017,29.1227227 7.71406886,29.1227227 L21.368168,29.1227227 C22.5263158,30.8451417 24.493168,31.9805162 26.7203948,31.9805162 C30.2745445,31.9805162 33.1659919,29.0890688 33.1659919,25.534919 C33.1659919,23.4579959 32.1781377,21.6075405 30.6480263,20.4281377 L30.6480263,20.4281377 Z M26.7203948,31.0088563 C23.7019231,31.0088563 21.2464575,28.5533907 21.2464575,25.534919 C21.2464575,22.5164474 23.7021761,20.0609818 26.7203948,20.0609818 C29.7386134,20.0609818 32.194332,22.5164474 32.194332,25.534919 C32.194332,28.5533907 29.7386134,31.0088563 26.7203948,31.0088563 Z" id="Shape"></path>
            <path d="M27.791245,25.049089 L27.2062247,25.049089 L27.2062247,21.5508603 C27.2062247,21.2826417 26.9886134,21.0650303 26.7203948,21.0650303 C26.451923,21.0650303 26.2345648,21.2826417 26.2345648,21.5508603 L26.2345648,25.534919 C26.2345648,25.8033907 26.451923,26.020749 26.7203948,26.020749 L29.791245,26.020749 C30.0594636,26.020749 30.2770749,25.8033907 30.2770749,25.534919 C30.2770749,25.2664474 30.0594636,25.049089 29.791245,25.049089 L27.791245,25.049089 Z" id="Path"></path>
        </g>
    </g>
</svg>