<?xml version="1.0" encoding="UTF-8"?>
<svg width="32px" height="32px" viewBox="0 0 32 32" version="1.1" xmlns="http://www.w3.org/2000/svg" xmlns:xlink="http://www.w3.org/1999/xlink">
    <!-- Generator: Sketch 60 (88103) - https://sketch.com -->
    <title>icon-facebook</title>
    <desc>Created with Sketch.</desc>
    <g id="Symbols" stroke="none" stroke-width="1" fill="none" fill-rule="evenodd">
        <g id="Footer" transform="translate(-1144.000000, -360.000000)">
            <g id="Social-Media">
                <g transform="translate(966.000000, 360.000000)">
                    <g id="icon-facebook" transform="translate(178.000000, 0.000000)">
                        <g id="Path">
                            <path d="M18.7733333,31.5440974 C18.6316301,31.578863 18.4894079,31.6108943 18.3466667,31.6401911 C18.4894079,31.6108943 18.6316301,31.578863 18.7733333,31.5440974 Z" fill="#000000" fill-rule="nonzero"></path>
                            <path d="M18.8689144,31.5653864 C18.8051936,31.5841364 18.741473,31.6013239 18.6777523,31.618902 C18.741473,31.6013239 18.8051936,31.5841364 18.8689144,31.5653864 Z" fill="#000000" fill-rule="nonzero"></path>
                            <path d="M17.92,31.9817016 C17.7785158,32.0098266 17.636146,32.0348266 17.4933333,32.0559203 C17.636146,32.0348266 17.7785158,32.0098266 17.92,31.9817016 Z" fill="#000000" fill-rule="nonzero"></path>
                            <path d="M18.3466667,31.99635 C18.2049062,32.0123657 18.0622223,32.0272094 17.92,32.0412719 C18.0622223,32.0272094 18.2049062,32.0123657 18.3466667,31.99635 Z" fill="#000000" fill-rule="nonzero"></path>
                            <path d="M19.2844727,31.5638239 C19.2283203,31.5829645 19.1719238,31.6021052 19.1155273,31.6204645 C19.1719238,31.6021052 19.2283203,31.5829645 19.2844727,31.5638239 Z" fill="#000000" fill-rule="nonzero"></path>
                            <path d="M20.5481152,31.1352041 C20.5027051,31.1559072 20.457295,31.1754385 20.4118848,31.195751 C20.457295,31.1754385 20.5027051,31.1559072 20.5481152,31.1352041 Z" fill="#000000" fill-rule="nonzero"></path>
                            <path d="M20.1275521,31.5612849 C20.0782356,31.581988 20.0286751,31.6030818 19.9791146,31.6230036 C20.0286751,31.6030818 20.0782356,31.5823786 20.1275521,31.5612849 Z" fill="#000000" fill-rule="nonzero"></path>
                            <path d="M19.7055241,31.5638239 C19.653278,31.5833552 19.6005436,31.6017145 19.5478092,31.6204645 C19.6005436,31.6017145 19.653278,31.5833552 19.7055241,31.5638239 Z" fill="#000000" fill-rule="nonzero"></path>
                            <path d="M17.4933333,32.0035766 C17.3512484,32.0149047 17.2091634,32.025061 17.0666667,32.0340453 C17.2091634,32.025061 17.3512484,32.0149047 17.4933333,32.0035766 Z" fill="#000000" fill-rule="nonzero"></path>
                            <path d="M32,16 C32,7.16479494 24.8352051,0 16,0 C7.16479494,0 0,7.16479494 0,16 C0,24.8352051 7.16479494,32 16,32 C16.0939941,32 16.1875,31.9980469 16.28125,31.9963379 L16.28125,19.5410156 L12.84375,19.5410156 L12.84375,15.5349121 L16.28125,15.5349121 L16.28125,12.5869141 C16.28125,9.16796875 18.3684082,7.30712888 21.4182129,7.30712888 C22.8786621,7.30712888 24.1340332,7.41601562 24.5,7.46459962 L24.5,11.0378418 L22.3969726,11.0378418 C20.737793,11.0378418 20.4165039,11.826416 20.4165039,12.9833984 L20.4165039,15.5349121 L24.3837891,15.5349121 L23.8666992,19.5410156 L20.4165039,19.5410156 L20.4165039,31.3818359 C27.1042481,29.4645996 32,23.3032226 32,16 Z" fill="#CCCCCC" fill-rule="nonzero"></path>
                            <path d="M17.0666667,31.9988891 C16.9249984,32.0160765 16.7827069,32.0297484 16.64,32.0387328 C16.7827069,32.0297484 16.9249984,32.0160765 17.0666667,31.9988891 Z" fill="#000000" fill-rule="nonzero"></path>
                            <path d="M16.64,32.0135375 C16.4980393,32.0182249 16.3556863,32.0217406 16.2133333,32.0240843 C16.3556863,32.0217406 16.4980393,32.0182249 16.64,32.0135375 Z" fill="#000000" fill-rule="nonzero"></path>
                        </g>
                    </g>
                </g>
            </g>
        </g>
    </g>
</svg>