<?xml version="1.0" encoding="UTF-8"?>
<svg width="16px" height="17px" viewBox="0 0 16 17" version="1.1" xmlns="http://www.w3.org/2000/svg" xmlns:xlink="http://www.w3.org/1999/xlink">
    <!-- Generator: Sketch 60 (88103) - https://sketch.com -->
    <title>Shape</title>
    <desc>Created with Sketch.</desc>
    <g id="05---Listing" stroke="none" stroke-width="1" fill="none" fill-rule="evenodd">
        <g transform="translate(-713.000000, -177.000000)" fill="#EF5729" fill-rule="nonzero" id="Filter">
            <g transform="translate(0.000000, 160.000000)">
                <g id="Group-9" transform="translate(361.000000, 8.000000)">
                    <path d="M367.310704,9.00000123 L352.689133,9.00000123 C352.431248,8.99951466 352.194826,9.14357917 352.076941,9.3730092 C351.957429,9.60552863 351.978404,9.88552759 352.131087,10.0978845 L357.487814,17.6438722 C357.489603,17.6464738 357.491554,17.6489129 357.493343,17.6515145 C357.687976,17.9142777 357.793179,18.2324879 357.793829,18.5596411 L357.793829,24.711813 C357.792691,24.8940887 357.864236,25.0690474 357.992691,25.1983152 C358.121145,25.327583 358.295779,25.4001031 358.477892,25.4001031 C358.570575,25.4001031 358.662119,25.3815666 358.747647,25.3461195 L361.757717,24.198319 C362.027472,24.1160429 362.206496,23.8615723 362.206496,23.5550694 L362.206496,18.5596411 C362.206984,18.2326505 362.312349,17.9142777 362.50682,17.6515145 C362.508608,17.6489129 362.51056,17.6464738 362.512348,17.6438722 L367.868913,10.0975593 C368.021596,9.88536496 368.042571,9.60552863 367.92306,9.3730092 C367.805174,9.14357917 367.568752,8.99951466 367.310704,9.00000123 Z M361.835603,17.1583456 C361.536417,17.5643603 361.374629,18.0552528 361.373653,18.5596411 L361.373653,23.4539316 L358.626347,24.5014073 L358.626347,18.5596411 C358.625371,18.0552528 358.463583,17.5643603 358.164235,17.1583456 L352.963766,9.83251964 L367.036234,9.83251964 L361.835603,17.1583456 Z" id="Shape"></path>
                </g>
            </g>
        </g>
    </g>
</svg>