<?xml version="1.0" encoding="UTF-8"?>
<svg width="58px" height="49px" viewBox="0 0 58 49" version="1.1" xmlns="http://www.w3.org/2000/svg" xmlns:xlink="http://www.w3.org/1999/xlink">
    <!-- Generator: Sketch 60 (88103) - https://sketch.com -->
    <title>icon-guests</title>
    <desc>Created with Sketch.</desc>
    <g id="Page-1" stroke="none" stroke-width="1" fill="none" fill-rule="evenodd">
        <g id="icon-guests" fill="#4A4A4A" fill-rule="nonzero">
            <path d="M47.6784784,21.5606108 C49.9150599,19.9725771 51.3960396,17.3309442 51.3960396,14.3533811 C51.3960396,9.48239327 47.4971339,5.54284824 42.676394,5.54284824 C37.855654,5.54284824 33.9567483,9.48239327 33.9567483,14.3533811 C33.9567483,17.3309442 35.4226159,19.9725771 37.6743095,21.5606108 C35.7550808,22.2324712 34.0020844,23.2708009 32.5211047,24.6145217 C30.4809797,22.8585229 28.0781657,21.5148021 25.4486712,20.7207853 C28.6373111,18.7662823 30.7832204,15.2084762 30.7832204,11.1620443 C30.7832204,4.99314428 25.8415842,0 19.736321,0 C13.6310578,0 8.68942157,5.00841384 8.68942157,11.1620443 C8.68942157,15.2084762 10.8202189,18.7662823 14.0239708,20.7207853 C11.4247004,21.5148021 9.05211047,22.8432533 7.02709745,24.568713 C3.23901338,27.5564558 0.952058364,31.7861224 0.166232413,37.2577127 C0.0604481501,38.0975382 0,38.9679028 0,39.8382674 L0,40.8765971 C0,45.3658461 3.59666493,49 8.03960396,49 L31.4632621,49 C35.9062011,49 39.5028661,45.3658461 39.5028661,40.8765971 L39.5028661,39.8382674 C39.5028661,38.9679028 39.4424179,38.0975382 39.3366337,37.2577127 L57.9395518,37.2577127 C57.9697759,37.2577127 58,37.2271736 58,37.1966345 L58,36.1888439 C57.9697759,29.4091617 53.6779573,23.6525397 47.6784784,21.5606108 Z M36.3746743,14.3381116 C36.3746743,10.8261141 39.2006253,7.97070739 42.676394,7.97070739 C46.1521626,7.97070739 48.9781136,10.8261141 48.9781136,14.3381116 C48.9781136,17.8043004 46.2126107,20.629168 42.7972903,20.7055157 C42.7519541,20.7055157 42.7217301,20.7055157 42.676394,20.7055157 C42.6310578,20.7055157 42.6008338,20.7055157 42.5554977,20.7055157 C39.1250651,20.6444375 36.3746743,17.81957 36.3746743,14.3381116 Z M11.0771235,11.1620443 C11.0771235,6.35213462 14.9458051,2.4431287 19.7060969,2.4431287 C24.4663887,2.4431287 28.3350703,6.35213462 28.3350703,11.1620443 C28.3350703,15.8039888 24.7232934,19.6061078 20.2047942,19.8656902 C20.0385618,19.8656902 19.8723293,19.8656902 19.7060969,19.8656902 C19.5398645,19.8656902 19.3736321,19.8656902 19.2073997,19.8656902 C14.6889005,19.6061078 11.0771235,15.8039888 11.0771235,11.1620443 Z M37.054716,40.8765971 C37.054716,44.0068557 34.5310057,46.5568713 31.433038,46.5568713 L8.00937989,46.5568713 C4.91141219,46.5568713 2.38770193,44.0068557 2.38770193,40.8765971 L2.38770193,39.8382674 C2.38770193,30.3558741 9.88327254,22.5989405 19.2073997,22.3240885 C19.3736321,22.3393581 19.5549766,22.3393581 19.721209,22.3393581 C19.8874414,22.3393581 20.0687858,22.3393581 20.2350182,22.3240885 C29.5591454,22.5989405 37.054716,30.3558741 37.054716,39.8382674 L37.054716,40.8765971 L37.054716,40.8765971 Z M38.8530485,34.7993144 C38.0218864,31.5774385 36.4351225,28.6914927 34.2741011,26.3094422 C36.5106826,24.3549392 39.4121939,23.1791835 42.5857217,23.1486444 C42.6159458,23.1486444 42.6461699,23.1486444 42.676394,23.1486444 C42.706618,23.1486444 42.7368421,23.1486444 42.7670662,23.1486444 C49.3710266,23.1944531 54.8113601,28.2944843 55.4914018,34.7993144 L38.8530485,34.7993144 Z"></path>
        </g>
    </g>
</svg>