<?xml version="1.0" encoding="utf-8"?>
<!-- Generator: Adobe Illustrator 24.1.0, SVG Export Plug-In . SVG Version: 6.00 Build 0)  -->
<svg version="1.1" id="katman_1" xmlns="http://www.w3.org/2000/svg" xmlns:xlink="http://www.w3.org/1999/xlink" x="0px" y="0px"
	 viewBox="0 0 23 32" style="enable-background:new 0 0 23 32;" xml:space="preserve">
<style type="text/css">
	.st0{fill:#4A4A4A;}
</style>
<desc>Created with Sketch.</desc>
<g>
	<path class="st0" d="M11.4,7c-2.2,0-4.1,1.8-4.1,4.1s1.8,4.1,4.1,4.1s4.1-1.8,4.1-4.1S13.6,7,11.4,7z M11.4,14
		c-1.6,0-2.9-1.3-2.9-2.9s1.3-2.9,2.9-2.9s2.9,1.3,2.9,2.9S13,14,11.4,14z"/>
	<path class="st0" d="M19.2,3.3C17.1,1.2,14.3,0,11.3,0c-3,0-5.8,1.2-7.9,3.3c-3.9,3.9-4.4,11.2-1,15.7l8.9,12.9L20.2,19
		C23.5,14.5,23.1,7.2,19.2,3.3z M19.3,18.3l-8,11.5l-8-11.5c-3-4-2.6-10.7,0.9-14.2c1.9-1.9,4.4-2.9,7.1-2.9s5.2,1,7.1,2.9
		C21.9,7.6,22.3,14.2,19.3,18.3z"/>
</g>
</svg>
