<?xml version="1.0" encoding="UTF-8"?>
<svg width="25px" height="24px" viewBox="0 0 25 24" version="1.1" xmlns="http://www.w3.org/2000/svg" xmlns:xlink="http://www.w3.org/1999/xlink">
    <!-- Generator: Sketch 60 (88103) - https://sketch.com -->
    <title>icon-night</title>
    <desc>Created with Sketch.</desc>
    <g id="Onee-Home" stroke="none" stroke-width="1" fill="none" fill-rule="evenodd">
        <g id="06---Property-Detail" transform="translate(-716.000000, -943.000000)" fill="#000000" fill-rule="nonzero">
            <g id="Group-13" transform="translate(716.000000, 943.000000)">
                <g id="icon-night" transform="translate(-0.000000, 0.000000)">
                    <path d="M24.4588619,13.7612887 C24.2807358,13.6830605 24.0721578,13.7445504 23.964954,13.9068954 C22.0193659,16.7938136 18.7531185,18.5096334 15.2719833,18.4734728 C12.5044519,18.4506276 9.9163682,17.3662092 7.98441841,15.4200502 C6.03072429,13.4547501 4.95821188,10.7807471 5.0123778,8.01011696 C5.06654373,5.23948681 6.24275039,2.60944639 8.27176569,0.722008368 C8.41349741,0.589972076 8.4410055,0.375677116 8.33721723,0.212124506 C8.23342896,0.0485718963 8.02781981,-0.017790013 7.848,0.0542259414 C5.54796524,0.966431022 3.57160682,2.54278447 2.17079498,4.58239331 C-1.22160409,9.52268132 -0.580767021,16.1848895 3.69112971,20.3879498 C6.04157322,22.7010377 9.16624268,23.9748954 12.4893891,23.9748954 C15.3597664,23.9741379 18.1433812,22.9907476 20.3772552,21.1882845 C22.5630115,19.4191707 24.0845141,16.9613643 24.6933891,14.2160837 C24.7363259,14.0276099 24.6373105,13.8355993 24.4588619,13.7612887 L24.4588619,13.7612887 Z M19.9979247,20.7202845 C17.8714129,22.4358892 15.2216687,23.3718091 12.4893891,23.3723849 C9.32530544,23.3723849 6.35076151,22.1599833 4.11374059,19.9584603 C0.0501929684,15.9605112 -0.559549785,9.62336427 2.66716318,4.92396653 C3.80048344,3.27371432 5.33329303,1.93737272 7.12262762,1.03958159 C3.34641521,5.31896218 3.5363114,11.7936579 7.55683682,15.8443682 C9.60140586,17.904 12.3396151,19.0516318 15.2669623,19.0758326 C15.2979414,19.0758326 15.3285188,19.0762343 15.3594477,19.0762343 C18.6423133,19.0829299 21.7550419,17.6165967 23.8403347,15.0810879 C23.139609,17.2965844 21.8034921,19.257426 19.9979247,20.7200837 L19.9979247,20.7202845 Z" id="Shape"></path>
                </g>
            </g>
        </g>
    </g>
</svg>