<?xml version="1.0" encoding="UTF-8"?>
<svg width="24px" height="24px" viewBox="0 0 24 24" version="1.1" xmlns="http://www.w3.org/2000/svg" xmlns:xlink="http://www.w3.org/1999/xlink">
    <!-- Generator: Sketch 60 (88103) - https://sketch.com -->
    <title>icon-question</title>
    <desc>Created with Sketch.</desc>
    <g id="Onee-Home" stroke="none" stroke-width="1" fill="none" fill-rule="evenodd">
        <g id="06---Property-Detail" transform="translate(-1077.000000, -751.000000)" fill="#9B9B9B">
            <g id="Group-9" transform="translate(945.000000, 548.000000)">
                <g id="icon-question" transform="translate(132.000000, 203.000000)">
                    <g>
                        <circle id="Oval" fill-rule="nonzero" cx="12" cy="17.7421875" r="1.171875"></circle>
                        <path d="M12,0 C5.3679375,0 0,5.36704687 0,12 C0,18.6320625 5.36704687,24 12,24 C18.6320625,24 24,18.6329531 24,12 C24,5.3679375 18.6329531,0 12,0 Z M12,22.125 C6.40420312,22.125 1.875,17.5965469 1.875,12 C1.875,6.40420312 6.40345313,1.875 12,1.875 C17.5957969,1.875 22.125,6.40345313 22.125,12 C22.125,17.5957969 17.5965469,22.125 12,22.125 Z" id="Shape" fill-rule="nonzero"></path>
                        <path d="M12,6.0234375 C9.93225,6.0234375 8.25,7.7056875 8.25,9.7734375 C8.25,10.2912187 8.66971875,10.7109375 9.1875,10.7109375 C9.70528125,10.7109375 10.125,10.2912187 10.125,9.7734375 C10.125,8.7395625 10.966125,7.8984375 12,7.8984375 C13.033875,7.8984375 13.875,8.7395625 13.875,9.7734375 C13.875,10.8073125 13.033875,11.6484375 12,11.6484375 C11.4822188,11.6484375 11.0625,12.0681562 11.0625,12.5859375 L11.0625,14.9296875 C11.0625,15.4474688 11.4822188,15.8671875 12,15.8671875 C12.5177812,15.8671875 12.9375,15.4474688 12.9375,14.9296875 L12.9375,13.4047969 C14.5530938,12.9874687 15.75,11.5176094 15.75,9.7734375 C15.75,7.7056875 14.06775,6.0234375 12,6.0234375 Z" id="Path" fill-rule="nonzero"></path>
                    </g>
                </g>
            </g>
        </g>
    </g>
</svg>