<?xml version="1.0" encoding="UTF-8"?>
<svg width="24px" height="24px" viewBox="0 0 24 24" version="1.1" xmlns="http://www.w3.org/2000/svg" xmlns:xlink="http://www.w3.org/1999/xlink">
    <!-- Generator: Sketch 60 (88103) - https://sketch.com -->
    <title>Combined Shape</title>
    <desc>Created with Sketch.</desc>
    <g id="Page-1" stroke="none" stroke-width="1" fill="none" fill-rule="evenodd">
        <path d="M9.88241257,-8.8817842e-16 C15.3318572,-8.8817842e-16 19.7648251,4.2683986 19.7648251,9.51553827 C19.7648251,12.1341238 18.6598773,14.5084771 16.8763371,16.2307896 L16.8763371,16.2307896 L23.8688499,23.2328664 C24.0486157,23.4132085 24.0429686,23.700034 23.8556733,23.8735793 C23.7643787,23.9578598 23.6472015,24 23.5295537,24 C23.4057883,24 23.2824934,23.9537817 23.1902576,23.8608919 L23.1902576,23.8608919 L16.1808035,16.8415965 C14.4697344,18.2077559 12.274427,19.0310765 9.88241257,19.0310765 C4.43296792,19.0310765 0,14.7626779 0,9.51553827 C0,4.2683986 4.43296792,-8.8817842e-16 9.88241257,-8.8817842e-16 Z M9.88241257,0.90624174 C4.95202988,0.90624174 0.941182149,4.76819091 0.941182149,9.51553827 C0.941182149,14.2628856 4.95202988,18.1248348 9.88241257,18.1248348 C14.8123247,18.1248348 18.823643,14.2628856 18.823643,9.51553827 C18.823643,4.76819091 14.8127953,0.90624174 9.88241257,0.90624174 Z" id="Combined-Shape" fill="#000000" fill-rule="nonzero"></path>
    </g>
</svg>