<?xml version="1.0" encoding="UTF-8"?>
<svg width="32px" height="24px" viewBox="0 0 32 24" version="1.1" xmlns="http://www.w3.org/2000/svg" xmlns:xlink="http://www.w3.org/1999/xlink">
    <!-- Generator: Sketch 60 (88103) - https://sketch.com -->
    <title>icon-camera</title>
    <desc>Created with Sketch.</desc>
    <g id="Onee-Home" stroke="none" stroke-width="1" fill="none" fill-rule="evenodd" opacity="0.650646391">
        <g id="06---Property-Detail" transform="translate(-713.000000, -1003.000000)" fill="#000000" fill-rule="nonzero">
            <g id="Group-13" transform="translate(713.000000, 1003.000000)">
                <g id="icon-camera">
                    <path d="M31.6640625,10.74275 L13.584,0.402125 C12.1894375,-0.39675 10.280625,0.0339375 9.3613125,1.3495625 L5.85875,6.3566875 C5.515,6.8486875 5.333375,7.425375 5.333375,8.0255 C5.333375,9.06225 5.8906875,10.0279375 6.787125,10.5453125 L10.60025,12.747375 L9.9114375,13.6665625 C9.538375,14.16375 9.3333125,14.7801875 9.3333125,15.401875 C9.3333125,16.0411875 9.5674375,16.6425625 9.9445625,17.1396875 L8.9296875,18.66675 L4,18.66675 L4,16.6601875 C4,16.291375 3.7018125,16.000125 3.3333125,16.000125 L0.6666875,16.000125 C0.2981875,16.000125 0,16.291375 0,16.6601875 L0,23.332875 C0,23.7016875 0.2981875,24.000125 0.6666875,24.000125 L3.333375,24.000125 C3.701875,24.000125 4.0000625,23.7016875 4.0000625,23.332875 L4.0000625,22.6668125 L8.92975,22.6668125 C10.27025,22.6668125 11.514375,22.0009375 12.257875,20.88475 L13.350625,19.244125 C13.5610625,19.2898125 13.7733125,19.33125 13.99025,19.33125 C15.0514375,19.33125 16.050125,18.765625 16.59575,17.8546875 L17.32825,16.63275 L23.002,19.9093125 C23.1041875,19.968625 23.2194375,19.9985625 23.3353125,19.9985625 C23.39975,19.9985625 23.46425,19.9894375 23.527375,19.9705625 C23.7031875,19.917125 23.849625,19.7939375 23.9316875,19.62975 L24.42525,18.6404375 C24.50625,18.6465625 24.5841875,18.6640625 24.6666875,18.6640625 C27.239625,18.6640625 29.333375,16.5684375 29.333375,13.9931875 C29.333375,13.710375 29.291625,13.4189375 29.2295625,13.121 L31.6315625,11.9190625 C31.851625,11.8089375 31.992875,11.58675 32.0002929,11.3404375 C32.0065,11.094625 31.877625,10.864625 31.6640625,10.74275 Z M2.6666875,22.6668125 L1.3333125,22.6668125 L1.3333125,17.3335 L2.666625,17.3335 L2.666625,22.6668125 L2.6666875,22.6668125 Z M11.1484375,20.1479375 C10.653,20.8914375 9.8235625,21.3354375 8.9296875,21.3354375 L4,21.3354375 L4,20.002125 L8.9296875,20.002125 C9.377625,20.002125 9.7923125,19.780125 10.0390625,19.408375 L10.96225,18.023125 L12.107125,18.709875 L11.1484375,20.1479375 Z M15.4525,17.1739375 C14.986375,17.9493125 13.889375,18.225375 13.1133125,17.7585625 L11.4225625,16.74425 C10.9564375,16.4649375 10.6666875,15.95325 10.6666875,15.409625 C10.6666875,15.075 10.777375,14.743625 10.977875,14.475375 L11.763125,13.4284375 L16.173125,15.972875 L15.4525,17.1739375 Z M23.0553125,18.4044375 L7.453125,9.4024375 C6.968125,9.1225 6.6666875,8.600375 6.6666875,8.0398125 C6.6666875,7.7149375 6.765,7.4030625 6.9511875,7.1368125 L8.625,4.7461875 L25.1229375,14.2639375 L23.0553125,18.4044375 Z M25.10125,17.2914375 L26.49675,14.4968125 L27.9776875,13.7564375 C27.985125,13.83825 28,13.9229375 28,14.0020625 C28,15.691125 26.7323125,17.0758125 25.10125,17.2914375 Z M26.022625,13.243375 L9.39275,3.649625 L10.4538125,2.13425 C10.80475,1.6329375 11.3789375,1.3334375 11.9909375,1.3334375 C12.317125,1.3334375 12.639375,1.41875 12.9225625,1.5808125 L29.92125,11.294375 L26.022625,13.243375 Z" id="Shape"></path>
                    <circle id="Oval" cx="22.000125" cy="15.3334375" r="1"></circle>
                </g>
            </g>
        </g>
    </g>
</svg>