<?xml version="1.0" encoding="UTF-8"?>
<svg width="30px" height="22px" viewBox="0 0 30 22" version="1.1" xmlns="http://www.w3.org/2000/svg" xmlns:xlink="http://www.w3.org/1999/xlink">
    <!-- Generator: Sketch 60 (88103) - https://sketch.com -->
    <title>icon-wifi</title>
    <desc>Created with Sketch.</desc>
    <g id="Onee-Home" stroke="none" stroke-width="1" fill="none" fill-rule="evenodd" opacity="0.602213542">
        <g id="06---Property-Detail" transform="translate(-58.000000, -1003.000000)" fill="#000000" fill-rule="nonzero">
            <g id="Group-16" transform="translate(58.000000, 1003.000000)">
                <g id="icon-wifi" transform="translate(0.000000, 0.000000)">
                    <path d="M29.3056098,6.50502439 C25.419122,2.618 20.2426829,0.477560976 14.7314146,0.477560976 C9.22014634,0.477560976 4.0442439,2.61746341 0.157219512,6.50502439 C-0.0525853659,6.71482927 -0.0525853659,7.05395122 0.157219512,7.2637561 C0.36702439,7.47356098 0.706146341,7.47356098 0.91595122,7.2637561 C4.60014634,3.57902439 9.50668293,1.55019512 14.7314146,1.55019512 C19.9561463,1.55019512 24.8626829,3.57902439 28.546878,7.26321951 C28.6515122,7.36785366 28.788878,7.42043902 28.9262439,7.42043902 C29.0636098,7.42043902 29.2009756,7.36785366 29.3056098,7.26321951 C29.5154146,7.05395122 29.5154146,6.71429268 29.3056098,6.50502439 Z" id="Path"></path>
                    <path d="M3.31126829,9.65853659 C3.10146341,9.86834146 3.10146341,10.2074634 3.31126829,10.4172683 C3.41590244,10.5219024 3.55326829,10.5744878 3.69063415,10.5744878 C3.828,10.5744878 3.96536585,10.5219024 4.07,10.4172683 C9.94829268,4.53843902 19.5134634,4.53843902 25.3922927,10.4172683 C25.6020976,10.6270732 25.9412195,10.6270732 26.1510244,10.4172683 C26.3608293,10.2074634 26.3608293,9.86834146 26.1510244,9.65853659 C19.8547317,3.3622439 9.60863415,3.36117073 3.31126829,9.65853659 Z" id="Path"></path>
                    <path d="M14.7314146,9.39453659 C11.6058049,9.39453659 8.67068293,10.6088293 6.46585366,12.813122 C6.25604878,13.0229268 6.25604878,13.3620488 6.46585366,13.5718537 C6.67565854,13.7816585 7.01478049,13.7816585 7.22458537,13.5718537 C9.22658537,11.5703902 11.8923415,10.4677073 14.7314146,10.4677073 C17.5704878,10.4677073 20.2362439,11.5703902 22.2382439,13.5718537 C22.342878,13.6764878 22.4802439,13.7290732 22.6176098,13.7290732 C22.7549756,13.7290732 22.8923415,13.6764878 22.9969756,13.5718537 C23.2067805,13.3620488 23.2067805,13.0229268 22.9969756,12.813122 C20.7926829,10.6088293 17.8570244,9.39453659 14.7314146,9.39453659 Z" id="Path"></path>
                    <path d="M14.7314146,14.4427317 C12.7932683,14.4427317 11.2162439,16.0197561 11.2162439,17.958439 C11.2162439,19.897122 12.7932683,21.4741463 14.7314146,21.4741463 C16.6700976,21.4741463 18.247122,19.897122 18.247122,17.958439 C18.247122,16.0197561 16.6700976,14.4427317 14.7314146,14.4427317 Z M14.7314146,20.400439 C13.3845854,20.400439 12.2894146,19.3047317 12.2894146,17.9579024 C12.2894146,16.6110732 13.385122,15.5153659 14.7314146,15.5153659 C16.0777073,15.5153659 17.1739512,16.6110732 17.1739512,17.9579024 C17.1739512,19.3047317 16.0782439,20.400439 14.7314146,20.400439 Z" id="Shape"></path>
                </g>
            </g>
        </g>
    </g>
</svg>