<?xml version="1.0" encoding="UTF-8"?>
<svg width="18px" height="18px" viewBox="0 0 18 18" version="1.1" xmlns="http://www.w3.org/2000/svg" xmlns:xlink="http://www.w3.org/1999/xlink">
    <!-- Generator: Sketch 60 (88103) - https://sketch.com -->
    <title>icon-close</title>
    <desc>Created with Sketch.</desc>
    <g id="Onee-Home-Desktop" stroke="none" stroke-width="1" fill="none" fill-rule="evenodd">
        <g id="02---Home---Travel-Advisor---Nav---Right" transform="translate(-76.000000, -20.000000)" fill="#4A4A4A" stroke="#4A4A4A">
            <g id="icon-close" transform="translate(77.000000, 21.000000)">
                <g id="Path">
                    <path d="M15.8107187,0.1893125 C15.5583125,-0.06309375 15.1490937,-0.06309375 14.8966875,0.1893125 L0.1893125,14.8966562 C-0.06309375,15.1490625 -0.06309375,15.5582813 0.1893125,15.8106875 C0.3155,15.9369375 0.4809375,16.0000078 0.64634375,16.0000078 C0.81175,16.0000078 0.97715625,15.9369062 1.103375,15.8106562 L15.8107187,1.1033125 C16.0630938,0.8509375 16.0630938,0.44171875 15.8107187,0.1893125 Z" fill-rule="nonzero"></path>
                    <path d="M15.8106875,14.8966875 L1.1033125,0.18934375 C0.8509375,-0.0630625 0.4416875,-0.0630625 0.1893125,0.18934375 C-0.06309375,0.44171875 -0.06309375,0.8509375 0.1893125,1.10334375 L14.8966875,15.8107187 C15.022875,15.9369375 15.1883125,16.0000391 15.3537187,16.0000391 C15.519125,16.0000391 15.6845625,15.9369375 15.8107187,15.81075 C16.0630625,15.5583125 16.0630625,15.1490937 15.8106875,14.8966875 Z" fill-rule="nonzero"></path>
                </g>
            </g>
        </g>
    </g>
</svg>