<?xml version="1.0" encoding="UTF-8"?>
<svg width="28px" height="24px" viewBox="0 0 28 24" version="1.1" xmlns="http://www.w3.org/2000/svg" xmlns:xlink="http://www.w3.org/1999/xlink">
    <!-- Generator: Sketch 60 (88103) - https://sketch.com -->
    <title>icon-bedroom</title>
    <desc>Created with Sketch.</desc>
    <g id="Onee-Home" stroke="none" stroke-width="1" fill="none" fill-rule="evenodd" opacity="0.748023624">
        <g id="06---Property-Detail" transform="translate(-60.000000, -943.000000)" fill="#000000" fill-rule="nonzero">
            <g id="Group-16" transform="translate(60.000000, 943.000000)">
                <g id="icon-bedroom" transform="translate(0.000000, 0.000000)">
                    <path d="M27.2307692,13.8461538 L26.7692308,13.8461538 L26.7692308,12.4615385 C26.7680192,11.5450385 26.2246154,10.7161154 25.3846154,10.3495385 L25.3846154,3.23076923 C25.3845,3.04730769 25.2758077,2.88138462 25.1076923,2.808 C25.28775,2.51942308 25.3836346,2.18630769 25.3846154,1.84615385 C25.3846154,0.826557692 24.5580577,0 23.5384615,0 C22.5188654,0 21.6923077,0.826557692 21.6923077,1.84615385 C21.6942115,2.17119231 21.7828269,2.48982692 21.9489231,2.76923077 L5.74338462,2.76923077 C5.90948077,2.48982692 5.99809615,2.17119231 6,1.84615385 C6,0.826557692 5.17344231,0 4.15384615,0 C3.13425,0 2.30769231,0.826557692 2.30769231,1.84615385 C2.30867308,2.18630769 2.40455769,2.51942308 2.58461538,2.808 C2.4165,2.88138462 2.30780769,3.04730769 2.30769231,3.23076923 L2.30769231,10.3495385 C1.46769231,10.7161154 0.924288462,11.5450385 0.923076923,12.4615385 L0.923076923,13.8461538 L0.461538462,13.8461538 C0.206653846,13.8461538 0,14.0528077 0,14.3076923 L0,20.7692308 C0,21.0241154 0.206653846,21.2307692 0.461538462,21.2307692 L0.923076923,21.2307692 L0.923076923,23.5384615 C0.923076923,23.7933462 1.12973077,24 1.38461538,24 L3.23076923,24 C3.48565385,24 3.69230769,23.7933462 3.69230769,23.5384615 L3.69230769,21.2307692 L24,21.2307692 L24,23.5384615 C24,23.7933462 24.2066538,24 24.4615385,24 L26.3076923,24 C26.5625769,24 26.7692308,23.7933462 26.7692308,23.5384615 L26.7692308,21.2307692 L27.2307692,21.2307692 C27.4856538,21.2307692 27.6923077,21.0241154 27.6923077,20.7692308 L27.6923077,14.3076923 C27.6923077,14.0528077 27.4856538,13.8461538 27.2307692,13.8461538 Z M23.5384615,0.923076923 C24.0482885,0.923076923 24.4615385,1.33632692 24.4615385,1.84615385 C24.4615385,2.35598077 24.0482885,2.76923077 23.5384615,2.76923077 C23.0286346,2.76923077 22.6153846,2.35598077 22.6153846,1.84615385 C22.6153846,1.33632692 23.0286346,0.923076923 23.5384615,0.923076923 Z M4.15384615,0.923076923 C4.66367308,0.923076923 5.07692308,1.33632692 5.07692308,1.84615385 C5.07692308,2.35598077 4.66367308,2.76923077 4.15384615,2.76923077 C3.64401923,2.76923077 3.23076923,2.35598077 3.23076923,1.84615385 C3.23076923,1.33632692 3.64401923,0.923076923 4.15384615,0.923076923 Z M3.23076923,3.69230769 L24.4615385,3.69230769 L24.4615385,10.1538462 L22.6033846,10.1538462 C22.9088077,9.75675 23.07525,9.27023077 23.0769231,8.76923077 L23.0769231,7.84615385 C23.0754231,6.57230769 22.0430769,5.53996154 20.7692308,5.53846154 L17.0769231,5.53846154 C15.8030769,5.53996154 14.7707308,6.57230769 14.7692308,7.84615385 L14.7692308,8.76923077 C14.7709038,9.27023077 14.9373462,9.75675 15.2427692,10.1538462 L12.4495385,10.1538462 C12.7549615,9.75675 12.9214038,9.27023077 12.9230769,8.76923077 L12.9230769,7.84615385 C12.9215769,6.57230769 11.8892308,5.53996154 10.6153846,5.53846154 L6.92307692,5.53846154 C5.64923077,5.53996154 4.61688462,6.57230769 4.61538462,7.84615385 L4.61538462,8.76923077 C4.61705769,9.27023077 4.7835,9.75675 5.08892308,10.1538462 L3.23076923,10.1538462 L3.23076923,3.69230769 Z M22.1538462,7.84615385 L22.1538462,8.76923077 C22.1538462,9.53394231 21.5339423,10.1538462 20.7692308,10.1538462 L17.0769231,10.1538462 C16.3122115,10.1538462 15.6923077,9.53394231 15.6923077,8.76923077 L15.6923077,7.84615385 C15.6923077,7.08144231 16.3122115,6.46153846 17.0769231,6.46153846 L20.7692308,6.46153846 C21.5339423,6.46153846 22.1538462,7.08144231 22.1538462,7.84615385 Z M12,7.84615385 L12,8.76923077 C12,9.53394231 11.3800962,10.1538462 10.6153846,10.1538462 L6.92307692,10.1538462 C6.15836538,10.1538462 5.53846154,9.53394231 5.53846154,8.76923077 L5.53846154,7.84615385 C5.53846154,7.08144231 6.15836538,6.46153846 6.92307692,6.46153846 L10.6153846,6.46153846 C11.3800962,6.46153846 12,7.08144231 12,7.84615385 Z M1.84615385,12.4615385 C1.84615385,11.6968269 2.46605769,11.0769231 3.23076923,11.0769231 L24.4615385,11.0769231 C25.22625,11.0769231 25.8461538,11.6968269 25.8461538,12.4615385 L25.8461538,13.8461538 L1.84615385,13.8461538 L1.84615385,12.4615385 Z M2.76923077,23.0769231 L1.84615385,23.0769231 L1.84615385,21.2307692 L2.76923077,21.2307692 L2.76923077,23.0769231 Z M25.8461538,23.0769231 L24.9230769,23.0769231 L24.9230769,21.2307692 L25.8461538,21.2307692 L25.8461538,23.0769231 Z M26.7692308,20.3076923 L0.923076923,20.3076923 L0.923076923,14.7692308 L26.7692308,14.7692308 L26.7692308,20.3076923 Z" id="Shape"></path>
                    <path d="M4.15384615,18.4615385 L2.30769231,18.4615385 C2.05280769,18.4615385 1.84615385,18.6681923 1.84615385,18.9230769 C1.84615385,19.1779615 2.05280769,19.3846154 2.30769231,19.3846154 L4.15384615,19.3846154 C4.40873077,19.3846154 4.61538462,19.1779615 4.61538462,18.9230769 C4.61538462,18.6681923 4.40873077,18.4615385 4.15384615,18.4615385 Z" id="Path"></path>
                    <path d="M25.3846154,18.4615385 L6,18.4615385 C5.74511538,18.4615385 5.53846154,18.6681923 5.53846154,18.9230769 C5.53846154,19.1779615 5.74511538,19.3846154 6,19.3846154 L25.3846154,19.3846154 C25.6395,19.3846154 25.8461538,19.1779615 25.8461538,18.9230769 C25.8461538,18.6681923 25.6395,18.4615385 25.3846154,18.4615385 Z" id="Path"></path>
                </g>
            </g>
        </g>
    </g>
</svg>