<?xml version="1.0" encoding="UTF-8"?>
<svg width="37px" height="24px" viewBox="0 0 37 24" version="1.1" xmlns="http://www.w3.org/2000/svg" xmlns:xlink="http://www.w3.org/1999/xlink">
    <!-- Generator: Sketch 60 (88103) - https://sketch.com -->
    <title>icon-people</title>
    <desc>Created with Sketch.</desc>
    <g id="Onee-Home" stroke="none" stroke-width="1" fill="none" fill-rule="evenodd" opacity="0.499162946">
        <g id="06---Property-Detail" transform="translate(-276.000000, -943.000000)" fill="#000000" fill-rule="nonzero">
            <g id="Group-15" transform="translate(276.000000, 943.000000)">
                <g id="icon-people" transform="translate(-0.000000, 0.000000)">
                    <path d="M18.3426542,0.0248971963 C15.2642991,0.0248971963 12.7600748,2.52904673 12.7600748,5.60747664 C12.7600748,8.68590654 15.2642243,11.1900561 18.3426542,11.1900561 C21.4210841,11.1900561 23.9252336,8.68583178 23.9252336,5.60747664 C23.9252336,2.5291215 21.4210841,0.0248971963 18.3426542,0.0248971963 Z M18.3426542,9.59499065 C16.1447477,9.59499065 14.3551402,7.80538318 14.3551402,5.60747664 C14.3551402,3.40957009 16.1447477,1.61996262 18.3426542,1.61996262 C20.5405607,1.61996262 22.3301682,3.40957009 22.3301682,5.60747664 C22.3301682,7.80538318 20.5406355,9.59499065 18.3426542,9.59499065 Z" id="Shape"></path>
                    <path d="M29.5078131,6.40500935 C27.3099065,6.40500935 25.5202991,8.19461682 25.5202991,10.3925234 C25.5202991,12.5904299 27.3099065,14.3800374 29.5078131,14.3800374 C31.7057196,14.3800374 33.4953271,12.5904299 33.4953271,10.3925234 C33.4953271,8.19461682 31.7057196,6.40500935 29.5078131,6.40500935 Z M29.5078131,12.7850467 C28.1887103,12.7850467 27.1152897,11.7116262 27.1152897,10.3925234 C27.1152897,9.07342056 28.1887103,8 29.5078131,8 C30.8269159,8 31.9003364,9.07342056 31.9003364,10.3925234 C31.9003364,11.7116262 30.8268411,12.7850467 29.5078131,12.7850467 Z" id="Shape"></path>
                    <path d="M7.29084112,6.40500935 C5.09128972,6.40500935 3.3033271,8.19461682 3.3033271,10.3925234 C3.3033271,12.5904299 5.09293458,14.3800374 7.29084112,14.3800374 C9.48874766,14.3800374 11.2783551,12.5904299 11.2783551,10.3925234 C11.2783551,8.19461682 9.49031776,6.40500935 7.29084112,6.40500935 Z M7.29084112,12.7850467 C5.97173832,12.7850467 4.89831776,11.7116262 4.89831776,10.3925234 C4.89831776,9.07342056 5.97173832,8 7.29084112,8 C8.60994393,8 9.68336449,9.07342056 9.68336449,10.3925234 C9.68336449,11.7116262 8.60986916,12.7850467 7.29084112,12.7850467 Z" id="Shape"></path>
                    <path d="M18.3426542,12.7850467 C12.6260935,12.7850467 7.97502804,17.4361121 7.97502804,23.1526729 C7.97502804,23.5928972 8.33233645,23.9502056 8.77256075,23.9502056 C9.21278505,23.9502056 9.57009346,23.5928972 9.57009346,23.1526729 C9.57009346,18.3149907 13.504972,14.3801121 18.3426542,14.3801121 C23.1803364,14.3801121 27.115215,18.3149907 27.115215,23.1526729 C27.115215,23.5928972 27.4725234,23.9502056 27.9127477,23.9502056 C28.352972,23.9502056 28.7102804,23.5928972 28.7102804,23.1526729 C28.7102804,17.4361121 24.059215,12.7850467 18.3426542,12.7850467 Z" id="Path"></path>
                    <path d="M29.5078131,15.9751028 C28.1951402,15.9751028 26.9095327,16.3339813 25.7898318,17.0118879 C25.415028,17.2415701 25.293757,17.731215 25.5218692,18.1076636 C25.7531215,18.4841121 26.2411963,18.6037383 26.6176449,18.3756262 C27.4868785,17.8476262 28.4853832,17.5700935 29.5078131,17.5700935 C32.5861682,17.5700935 35.0903925,20.074243 35.0903925,23.1526729 C35.0903925,23.5928972 35.4477009,23.9502056 35.8879252,23.9502056 C36.3281495,23.9502056 36.6854579,23.5928972 36.6854579,23.1526729 C36.6854579,19.1954393 33.4650467,15.9751028 29.5078131,15.9751028 Z" id="Path"></path>
                    <path d="M10.8939813,17.010243 C9.77585047,16.3339813 8.49031776,15.9751028 7.17757009,15.9751028 C3.22033645,15.9751028 0,19.1954393 0,23.1526729 C0,23.5928972 0.357308411,23.9502056 0.79753271,23.9502056 C1.23775701,23.9502056 1.59506542,23.5928972 1.59506542,23.1526729 C1.59499065,20.074243 4.09921495,17.5700935 7.17757009,17.5700935 C8.2,17.5700935 9.19842991,17.8476262 10.0661682,18.3739813 C10.440972,18.6020935 10.9322617,18.4824673 11.1619439,18.1060187 C11.3916262,17.7295701 11.2703551,17.2399252 10.8939813,17.010243 Z" id="Path"></path>
                </g>
            </g>
        </g>
    </g>
</svg>