<?xml version="1.0" encoding="UTF-8"?>
<svg width="32px" height="32px" viewBox="0 0 32 32" version="1.1" xmlns="http://www.w3.org/2000/svg" xmlns:xlink="http://www.w3.org/1999/xlink">
    <!-- Generator: Sketch 60 (88103) - https://sketch.com -->
    <title>icon-instagram</title>
    <desc>Created with Sketch.</desc>
    <g id="Symbols" stroke="none" stroke-width="1" fill="none" fill-rule="evenodd">
        <g id="Footer" transform="translate(-1025.000000, -360.000000)" fill="#CCCCCC">
            <g id="Social-Media">
                <g transform="translate(966.000000, 360.000000)">
                    <g id="icon-instagram" transform="translate(59.000000, 0.000000)">
                        <g>
                            <path d="M19.2,16.2133333 C19.2,17.8628571 17.8628571,19.2 16.2133333,19.2 C14.5638095,19.2 13.2266667,17.8628571 13.2266667,16.2133333 C13.2266667,14.5638095 14.5638095,13.2266667 16.2133333,13.2266667 C17.8628571,13.2266667 19.2,14.5638095 19.2,16.2133333 Z" id="Path" fill-rule="nonzero"></path>
                            <path d="M23.100007,10.6284968 C22.9540692,10.2330368 22.7212464,9.87508981 22.4187219,9.58127809 C22.1249102,9.2787536 21.7672052,9.04593081 21.3715032,8.89999299 C21.0505853,8.7753529 20.5684823,8.62699492 19.6805126,8.58657764 C18.7199369,8.54277211 18.4319336,8.53333333 16.000121,8.53333333 C13.5680664,8.53333333 13.2800631,8.54253011 12.3197294,8.58633563 C11.4317597,8.62699492 10.9494147,8.7753529 10.6287388,8.89999299 C10.2330368,9.04593081 9.87508981,9.2787536 9.58152009,9.58127809 C9.2789956,9.87508981 9.04617281,10.2327948 8.89999299,10.6284968 C8.7753529,10.9494147 8.62699492,11.4317597 8.58657764,12.3197294 C8.54277211,13.2800631 8.53333333,13.5680664 8.53333333,16.000121 C8.53333333,18.4319336 8.54277211,18.7199369 8.58657764,19.6805126 C8.62699492,20.5684823 8.7753529,21.0505853 8.89999299,21.3715033 C9.04617281,21.7672053 9.2787536,22.1249102 9.58127809,22.4187219 C9.87508981,22.7212464 10.2327947,22.9540693 10.6284967,23.100007 C10.9494147,23.2248891 11.4317597,23.3732471 12.3197294,23.4136644 C13.2800631,23.45747 13.5678244,23.4666667 15.999879,23.4666667 C18.4321756,23.4666667 18.7201789,23.45747 19.6802706,23.4136644 C20.5682403,23.3732471 21.0505853,23.2248891 21.3715032,23.100007 C22.1658115,22.7936103 22.7936103,22.1658115 23.100007,21.3715033 C23.2246471,21.0505853 23.3730051,20.5684823 23.4136644,19.6805126 C23.4574699,18.7199369 23.4666667,18.4319336 23.4666667,16.000121 C23.4666667,13.5680664 23.4574699,13.2800631 23.4136644,12.3197294 C23.3732471,11.4317597 23.2248891,10.9494147 23.100007,10.6284968 L23.100007,10.6284968 Z M16.000121,20.6766651 C13.4170462,20.6766651 11.3230929,18.5829538 11.3230929,15.999879 C11.3230929,13.4168042 13.4170462,11.3230929 16.000121,11.3230929 C18.5829538,11.3230929 20.6769071,13.4168042 20.6769071,15.999879 C20.6769071,18.5829538 18.5829538,20.6766651 16.000121,20.6766651 Z M20.8618101,12.2311503 C20.2582132,12.2311503 19.7688497,11.7417868 19.7688497,11.1381899 C19.7688497,10.5345931 20.2582132,10.0452296 20.8618101,10.0452296 C21.4654069,10.0452296 21.9547704,10.5345931 21.9547704,11.1381899 C21.9545284,11.7417868 21.4654069,12.2311503 20.8618101,12.2311503 Z" id="Shape" fill-rule="nonzero"></path>
                            <path d="M16,0 C7.16479494,0 0,7.16479494 0,16 C0,24.8352051 7.16479494,32 16,32 C24.8352051,32 32,24.8352051 32,16 C32,7.16479494 24.8352051,0 16,0 Z M25.1320801,19.7878418 C25.0876465,20.7658691 24.9321289,21.4335938 24.7050781,22.0180664 C24.2277832,23.2521973 23.2521973,24.2277832 22.0180664,24.7050781 C21.4338379,24.9321289 20.7658691,25.0874024 19.7880859,25.1320801 C18.8083496,25.1767578 18.4953613,25.1875 16.0002441,25.1875 C13.5048828,25.1875 13.1921387,25.1767578 12.2121582,25.1320801 C11.234375,25.0874024 10.5664062,24.9321289 9.98217775,24.7050781 C9.3688965,24.4743653 8.81372069,24.112793 8.35473631,23.6452637 C7.88745119,23.1865234 7.52587888,22.6311035 7.295166,22.0180664 C7.06811525,21.4338379 6.91259763,20.7658691 6.86816406,19.7880859 C6.82299806,18.8081055 6.8125,18.4951172 6.8125,16 C6.8125,13.5048828 6.82299806,13.1918945 6.86791994,12.2121582 C6.9123535,11.2341309 7.06762694,10.5664063 7.29467775,9.98193363 C7.52539063,9.3688965 7.887207,8.81347656 8.35473631,8.35473631 C8.81347656,7.887207 9.3688965,7.52563475 9.98193363,7.29492188 C10.5664062,7.06787113 11.2341309,6.91259763 12.2121582,6.86791994 C13.1918945,6.82324219 13.5048828,6.8125 16,6.8125 C18.4951172,6.8125 18.8081055,6.82324219 19.7878418,6.86816406 C20.7658691,6.91259763 21.4335938,7.06787113 22.0180664,7.29467775 C22.6311035,7.52539063 23.1865234,7.887207 23.6455078,8.35473631 C24.112793,8.81372069 24.4746094,9.3688965 24.7050781,9.98193363 C24.9323731,10.5664063 25.0876465,11.2341309 25.1323242,12.2121582 C25.1770019,13.1918945 25.1875,13.5048828 25.1875,16 C25.1875,18.4951172 25.1770019,18.8081055 25.1320801,19.7878418 L25.1320801,19.7878418 Z" id="Shape" fill-rule="nonzero"></path>
                        </g>
                    </g>
                </g>
            </g>
        </g>
    </g>
</svg>