<?xml version="1.0" encoding="UTF-8"?>
<svg width="31px" height="28px" viewBox="0 0 31 28" version="1.1" xmlns="http://www.w3.org/2000/svg" xmlns:xlink="http://www.w3.org/1999/xlink">
    <!-- Generator: Sketch 60 (88103) - https://sketch.com -->
    <title>icon-pool</title>
    <desc>Created with Sketch.</desc>
    <g id="Onee-Home" stroke="none" stroke-width="1" fill="none" fill-rule="evenodd" opacity="0.649762835">
        <g id="06---Property-Detail" transform="translate(-496.000000, -1000.000000)" fill="#000000" fill-rule="nonzero">
            <g id="Group-14" transform="translate(496.000000, 1000.000000)">
                <g id="icon-pool">
                    <path d="M29.9697143,7.61942857 L27.4300317,7.61942857 L27.4300317,1.7512381 C27.4152381,0.772571429 26.6121905,-0.0100952381 25.6334603,0.000276999025 C25.0005714,-0.00133333333 24.4125714,0.327111111 24.0822222,0.866920635 L20.8268571,6.29066667 L20.8268571,1.7512381 C20.8120635,0.772571429 20.0090159,-0.0100952381 19.0302857,0.000276999025 C18.3973968,-0.00133333333 17.8093968,0.327111111 17.4790476,0.866920635 L13.4262222,7.61942857 L0.509396825,7.61942857 C0.228888889,7.61942857 0.00146031746,7.84685714 0.00146031746,8.12736508 C0.00146031746,8.40787302 0.228888889,8.63530159 0.509396825,8.63530159 L12.8166984,8.63530159 L12.6704127,8.87860317 C12.3573968,9.40044444 12.192,9.9975873 12.1919365,10.6060952 L12.1919365,18.2860952 C12.1919365,18.5666032 12.4193651,18.7940317 12.699873,18.7940317 C12.980381,18.7940317 13.2078095,18.5666032 13.2078095,18.2860952 L13.2078095,16.2543492 L18.7951111,16.2543492 L18.7951111,18.2860952 C18.7951111,18.5666032 19.0225397,18.7940317 19.3030476,18.7940317 C19.5835556,18.7940317 19.8109841,18.5666032 19.8109841,18.2860952 L19.8109841,10.6060952 C19.8111746,10.1817143 19.9264762,9.76526984 20.1446984,9.40126984 L20.604381,8.63530159 L29.9697143,8.63530159 C30.2502222,8.63530159 30.4776508,8.40787302 30.4776508,8.12736508 C30.4776508,7.84685714 30.2502222,7.61942857 29.9697143,7.61942857 Z M18.7951111,15.2384762 L13.2078095,15.2384762 L13.2078095,12.6987937 L18.7951111,12.6987937 L18.7951111,15.2384762 Z M19.2735873,8.87860317 C18.9605714,9.40044444 18.7951746,9.9975873 18.7951111,10.6060952 L18.7951111,11.6829206 L13.2078095,11.6829206 L13.2078095,10.6060952 C13.208,10.1817143 13.3233016,9.76526984 13.5415238,9.40126984 L14.0012063,8.63530159 L19.419873,8.63530159 L19.2735873,8.87860317 Z M19.8109841,7.61942857 L14.6112381,7.61942857 L18.3501587,1.3895873 C18.4961905,1.15498413 18.7539683,1.01352381 19.0302857,1.01625397 C19.4480635,1.00571429 19.7963175,1.3335873 19.8109841,1.7512381 L19.8109841,7.61942857 L19.8109841,7.61942857 Z M26.4141587,7.61942857 L21.2144127,7.61942857 L24.9533333,1.3895873 C25.0993651,1.15498413 25.3571429,1.01352381 25.6334603,1.01625397 C26.0512381,1.00571429 26.3994921,1.3335873 26.4141587,1.7512381 L26.4141587,7.61942857 L26.4141587,7.61942857 Z" id="Shape"></path>
                    <path d="M30.3339048,20.4615873 C30.1379683,20.2600635 29.815746,20.2554921 29.6141587,20.4514286 C28.8275556,21.2080635 27.583746,21.2080635 26.7971429,20.4514286 C25.6147937,19.3153016 23.7463492,19.3153016 22.564,20.4514286 C21.7768889,21.2067302 20.5340952,21.2067302 19.7469841,20.4514286 C18.5644444,19.3151746 16.695873,19.3151746 15.5133333,20.4514286 C14.7267302,21.2080635 13.4829206,21.2080635 12.6963175,20.4514286 C11.5139683,19.3153016 9.64552381,19.3153016 8.4631746,20.4514286 C7.67606349,21.2067302 6.43326984,21.2067302 5.64615873,20.4514286 C4.46361905,19.3151746 2.59504762,19.3151746 1.41250794,20.4514286 L0.15384127,21.6760635 C-0.0468571429,21.872 -0.0507301587,22.1935873 0.145206349,22.3942857 C0.340888889,22.5952381 0.662412698,22.599619 0.863428571,22.4039365 L2.12260317,21.1813333 C2.90920635,20.4246984 4.15301587,20.4246984 4.93961905,21.1813333 C6.12253968,22.3165079 7.99034921,22.3165079 9.17326984,21.1813333 C9.95980952,20.4250159 11.2032381,20.4250159 11.9897778,21.1813333 C13.1725079,22.3170159 15.0406984,22.3170159 16.2234286,21.1813333 C17.0099683,20.4250159 18.2533968,20.4250159 19.0399365,21.1813333 C20.2228571,22.3165079 22.0906667,22.3165079 23.2735873,21.1813333 C24.060127,20.4250159 25.3035556,20.4250159 26.0900952,21.1813333 C27.2728254,22.3170159 29.1410159,22.3170159 30.323746,21.1813333 C30.5253333,20.9853968 30.5298413,20.6631746 30.3339048,20.4615873 Z" id="Path"></path>
                    <path d="M30.3333968,15.5351111 C30.1370159,15.3342222 29.8149841,15.3306032 29.6141587,15.5269841 C28.8275556,16.283619 27.583746,16.283619 26.7971429,15.5269841 C25.6146032,14.3913651 23.7465397,14.3913651 22.564,15.5269841 C22.2217143,15.8576508 21.7735238,16.0566349 21.2987302,16.0887619 C21.0188571,16.108 20.807619,16.3504762 20.8268571,16.6303492 C20.8268571,16.6304762 20.8268571,16.6306032 20.8268571,16.6307302 C20.8506032,16.9085079 21.0904127,17.1173333 21.3688254,17.1026032 C22.084,17.0537143 22.7587937,16.7532063 23.2735873,16.2543492 C24.060127,15.4980317 25.3035556,15.4980317 26.0900952,16.2543492 C27.2730159,17.3910476 29.1423492,17.3910476 30.3252698,16.2543492 C30.5261587,16.0579683 30.5297778,15.7359365 30.3333968,15.5351111 Z" id="Path"></path>
                    <path d="M10.6848889,14.6731429 C9.85980952,14.6434921 9.05822222,14.9510476 8.46469841,15.5249524 C7.67809524,16.2815873 6.43428571,16.2815873 5.64768254,15.5249524 C4.46450794,14.3902857 2.59720635,14.3902857 1.41403175,15.5249524 L0.15384127,16.751619 C-0.0473015873,16.948 -0.0511746032,17.2702222 0.145206349,17.4713651 C0.341587302,17.6725079 0.663809524,17.676381 0.864952381,17.48 L2.12260317,16.2543492 C2.90990476,15.4995556 4.15231746,15.4995556 4.93961905,16.2543492 C6.12279365,17.3890159 7.99009524,17.3890159 9.17326984,16.2543492 C9.56869841,15.8729524 10.1023492,15.6688254 10.6513651,15.6890159 C10.931873,15.6982857 11.1667937,15.4783492 11.1760635,15.1978413 C11.1853333,14.9173333 10.9653968,14.6824127 10.6848889,14.6731429 Z" id="Path"></path>
                    <path d="M30.3339048,25.8502857 C30.1379683,25.6487619 29.815746,25.6441905 29.6141587,25.840127 C28.8275556,26.5967619 27.583746,26.5967619 26.7971429,25.840127 C25.6146032,24.7045079 23.7465397,24.7045079 22.564,25.840127 C21.7768889,26.5954286 20.5340952,26.5954286 19.7469841,25.840127 C18.5638095,24.7054603 16.6965079,24.7054603 15.5133333,25.840127 C14.7267302,26.5967619 13.4829206,26.5967619 12.6963175,25.840127 C11.5137778,24.7045079 9.64571429,24.7045079 8.4631746,25.840127 C7.67606349,26.5954286 6.43326984,26.5954286 5.64615873,25.840127 C4.46298413,24.7054603 2.59568254,24.7054603 1.41250794,25.840127 L0.15384127,27.0647619 C-0.0473015873,27.2603175 -0.0518095238,27.5819048 0.143746032,27.7830476 C0.144253968,27.7835556 0.144698413,27.7840635 0.145206349,27.7845079 C0.340761905,27.9856508 0.662285714,27.9901587 0.863428571,27.7946667 L2.12260317,26.5700317 C2.90971429,25.8147302 4.15250794,25.8147302 4.93961905,26.5700317 C6.12253968,27.7052063 7.99034921,27.7052063 9.17326984,26.5700317 C9.95980952,25.8137143 11.2032381,25.8137143 11.9897778,26.5700317 C13.1725079,27.7057143 15.0406984,27.7057143 16.2234286,26.5700317 C17.0099683,25.8137143 18.2533968,25.8137143 19.0399365,26.5700317 C20.2228571,27.7052063 22.0906667,27.7052063 23.2735873,26.5700317 C24.060127,25.8137143 25.3035556,25.8137143 26.0900952,26.5700317 C27.2730159,27.7052063 29.1408254,27.7052063 30.323746,26.5700317 C30.5253333,26.3740952 30.5298413,26.051873 30.3339048,25.8502857 Z" id="Path"></path>
                </g>
            </g>
        </g>
    </g>
</svg>