<?xml version="1.0" encoding="UTF-8"?>
<svg width="32px" height="32px" viewBox="0 0 32 32" version="1.1" xmlns="http://www.w3.org/2000/svg" xmlns:xlink="http://www.w3.org/1999/xlink">
    <!-- Generator: Sketch 60 (88103) - https://sketch.com -->
    <title>2675940</title>
    <desc>Created with Sketch.</desc>
    <g id="Symbols" stroke="none" stroke-width="1" fill="none" fill-rule="evenodd">
        <g id="Search" transform="translate(-1142.000000, -24.000000)" fill="#20A7DF" fill-rule="nonzero">
            <g id="Group-8">
                <g transform="translate(108.000000, 0.000000)">
                    <g id="Group-3" transform="translate(1034.000000, 24.000000)">
                        <g id="2675940">
                            <path d="M31.0295409,26.568965 L25.1823813,20.7218054 C25.1006846,20.6400068 24.9898188,20.5940443 24.8742101,20.5940443 C24.7586014,20.5940443 24.6477357,20.6400068 24.5660389,20.7218054 L24.1720778,21.1157665 L21.8312218,18.7749105 C25.362505,13.6911306 24.4285861,6.75250671 19.6788016,2.78333474 C14.929017,-1.18583722 7.93484596,-0.872345943 3.55920514,3.50584393 C-0.816435678,7.88403381 -1.12585359,14.8783863 2.84608391,19.6258584 C6.81802142,24.3733305 13.757188,25.3032083 18.8389105,21.768965 L21.1797665,24.109821 L20.7848093,24.5042802 C20.7029344,24.585987 20.6569234,24.6969061 20.6569234,24.8125759 C20.6569234,24.9282457 20.7029344,25.0391648 20.7848093,25.1208716 L26.6484047,30.9690272 C27.8634483,32.1788446 29.8291865,32.1746078 31.0390039,30.9595642 C32.2488212,29.7445206 32.2445845,27.7787823 31.0295409,26.568965 Z M19.1925292,20.8906459 C19.0397008,20.7376132 18.7977282,20.7199053 18.624249,20.8490584 C13.9637674,24.3109774 7.42143799,23.5892058 3.62771555,19.1945906 C-0.166006882,14.7999754 0.0750145893,8.22236664 4.18019256,4.11718867 C8.28537053,0.0120106982 14.8629793,-0.229010773 19.2575945,3.56471166 C23.6522096,7.3584341 24.3739813,13.9007635 20.9120623,18.5612451 C20.7829092,18.7347243 20.8006171,18.9766969 20.9536498,19.1295253 L23.5559844,21.7321089 L21.7948638,23.4929805 L19.1925292,20.8906459 Z M28.8378521,31.0038997 C28.2474031,31.0055433 27.6807751,30.7711817 27.264,30.3529339 L21.7106926,24.8115798 L22.1041556,24.4181167 L24.4813696,22.0409027 L24.8753307,21.6469416 L30.4144436,27.1860545 C31.0517204,27.8254765 31.2424257,28.7851742 30.8980362,29.6196669 C30.5536467,30.4541597 29.7416037,31.00003 28.8388482,31.0038997 L28.8378521,31.0038997 Z" id="Shape"></path>
                            <path d="M17.9533696,8.15638911 C17.375595,7.46976529 16.5238305,7.07369117 15.6264591,7.07428789 L15.3948638,7.07428789 C14.1210049,7.06992334 12.9004914,7.58547111 12.0155642,8.50178988 C11.1308237,7.58549872 9.91047208,7.06994335 8.63676265,7.07428789 L8.46244358,7.07428789 C7.6346534,7.06853047 6.83826594,7.39088204 6.24759533,7.97086381 C5.07835615,9.13622149 5.05621829,11.0228105 6.19778988,12.215284 L11.2032374,17.4799689 C11.4148041,17.7026711 11.7085132,17.8287639 12.0156887,17.8287639 C12.3228642,17.8287639 12.6165733,17.7026711 12.8281401,17.4799689 L17.8323424,12.214537 C18.9021406,11.090815 18.9543,9.34186692 17.9533696,8.15638911 L17.9533696,8.15638911 Z M17.2005603,11.6141323 L12.196607,16.8793152 C12.1495849,16.9288843 12.0842618,16.9569563 12.0159377,16.9569563 C11.9476137,16.9569563 11.8822906,16.9288843 11.8352685,16.8793152 L6.83131518,11.6143813 C6.01652512,10.7628867 6.03257465,9.41605456 6.86742412,8.5842179 C7.29415805,8.16887883 7.86798579,7.93940146 8.46343969,7.94596109 L8.63775875,7.94596109 C9.82538085,7.94228031 10.9469256,8.49209687 11.6714086,9.43315175 C11.7571926,9.53444181 11.8832027,9.59285123 12.0159377,9.59285123 C12.1486727,9.59285123 12.2746829,9.53444181 12.3604669,9.43315175 C13.0851096,8.49188788 14.2069794,7.94204736 15.3948638,7.94596109 L15.6264591,7.94596109 C16.4948445,7.94603617 17.2797277,8.46333866 17.6222198,9.26133128 C17.964712,10.0593239 17.7989817,10.9846222 17.2008093,11.6141323 L17.2005603,11.6141323 Z" id="Shape"></path>
                        </g>
                    </g>
                </g>
            </g>
        </g>
    </g>
</svg>