<?xml version="1.0" encoding="UTF-8"?>
<svg width="16px" height="16px" viewBox="0 0 16 16" version="1.1" xmlns="http://www.w3.org/2000/svg" xmlns:xlink="http://www.w3.org/1999/xlink">
    <!-- Generator: Sketch 60 (88103) - https://sketch.com -->
    <title>Path</title>
    <desc>Created with Sketch.</desc>
    <g id="Symbols" stroke="none" stroke-width="1" fill="none" fill-rule="evenodd">
        <g id="icon-ratings" transform="translate(-84.000000, -1.000000)" fill="#D0D1D5">
            <g id="Ratings">
                <g id="290413" transform="translate(84.000000, 1.000000)">
                    <path d="M12.4778168,15.3961793 C12.3670643,15.3961793 12.2558752,15.3704483 12.1535127,15.3182066 L7.98443665,13.191423 L3.81536062,15.3182066 C3.71296686,15.3704483 3.60177778,15.3961793 3.49102534,15.3961793 C3.34356335,15.3961793 3.19688109,15.3505185 3.07284211,15.2609435 C2.85573489,15.1040312 2.74473294,14.8387368 2.7854347,14.5739727 L3.50262768,9.90658869 L0.205192982,6.55706823 C0.0179961014,6.36693957 -0.0475321637,6.08826511 0.035337232,5.83463548 C0.118175439,5.58103704 0.335563353,5.39477583 0.598892788,5.35179727 L5.21213255,4.59895517 L7.3482729,0.40137232 C7.47003509,0.161996101 7.71586745,0.0112904483 7.98443665,0.0112904483 C8.25300585,0.0112904483 8.49883821,0.16202729 8.6205692,0.40137232 L10.7567096,4.59895517 L15.3699805,5.35179727 C15.6333411,5.39477583 15.8506979,5.58103704 15.9335673,5.83463548 C16.0164055,6.08826511 15.9508772,6.36693957 15.7636803,6.55706823 L12.4662768,9.90652632 L13.1834074,14.5739103 C13.2241092,14.8387057 13.1131072,15.1039688 12.896,15.2608811 C12.7719922,15.3504873 12.6252788,15.3961793 12.4778168,15.3961793 Z" id="Path"></path>
                </g>
            </g>
        </g>
    </g>
</svg>